# xmcd
#
# Track frame offsets:
#	199
#	16122
#	28854
#	44243
#	58630
#	71240
#	84581
#	96414
#	108725
#	126335
#	137593
#	147391
#
# Disc length: 2174 seconds
# Revision: 1
# Processed by: cddbd v1.5.2PL0 Copyright (c) Steve Scherf et al.
# Submitted via: dBpowerAMP V12.0
#
DISCID=b9087c0c
DTITLE=Farm Hands - Better Than I Deserve
DYEAR=2015
DGENRE=Country
TTITLE0=The Way That I Wass Raised
TTITLE1=Blood On the Moon
TTITLE2=From Your Knees
TTITLE3=Mama Prayed and Daddy Plowed
TTITLE4=This Old Gravel Road
TTITLE5=The Way It Was In '51
TTITLE6=Over In the Gloryland
TTITLE7=Talk About the Good Times
TTITLE8=He's Got an Answer For Everything
TTITLE9=Farm Country
TTITLE10=Streets of Gold
TTITLE11=Better Than I Deserve
EXTD=
EXTT0=
EXTT1=
EXTT2=
EXTT3=
EXTT4=
EXTT5=
EXTT6=
EXTT7=
EXTT8=
EXTT9=
EXTT10=
EXTT11=
PLAYORDER=
